# xmcd
#
# Track frame offsets:
#	150
#	13570
#	25202
#	40195
#	52042
#	63220
#	75867
#	88015
#	104517
#	117550
#	130497
#	146110
#	159285
#
# Disc length: 2318 seconds
#
# Revision: 4
# Processed by: cddbd v1.5.2PL0 Copyright (c) Steve Scherf et al.
# Submitted via: EasyCDDAExtractor 10.0.2.1
#
DISCID=a8090c0d
DTITLE=JOÃO MINEIRO E MARCIANO - OS GRANDES SUCESSOS [CD 472649-2) EMI
DYEAR=1998
DGENRE=Other
TTITLE0=CRISES DE AMOR (BY GILMAR SINISTRO)
TTITLE1=WHISKY COM GELO (BY GILMAR SINISTRO)
TTITLE2=VICIADO EM VOCÊ (BY GILMAR SINISTRO)
TTITLE3=A MULHER QUE EU AMO (BY GILMAR SINISTRO)
TTITLE4=CANÇÃO DO NOSSO ADEUS (BY GILMAR SINISTRO)
TTITLE5=DAMA DA NOITE (BY GILMAR SINISTRO)
TTITLE6=CASA DE FESTA (BY GILMAR SINISTRO)
TTITLE7=SEU AMOR AINDA É TUDO (BY GILMAR SINISTRO)
TTITLE8=AMOR E AMIZADE (DIA SIM DIA NÃO) (BY GILMAR SINISTRO)
TTITLE9=TELEFONE MAIS (BY GILMAR SINISTRO)
TTITLE10=AS PAREDES AZUIS (BY GILMAR SINISTRO)
TTITLE11=ESTA NOITE COMO LEMBRANÇA (BY GILMAR SINISTRO)
TTITLE12=CHUVAS DE MAIO (LOS AGUACEROS DE MAYO) (BY GILMAR SINISTRO)
EXTD=
EXTT0=
EXTT1=
EXTT2=
EXTT3=
EXTT4=
EXTT5=
EXTT6=
EXTT7=
EXTT8=
EXTT9=
EXTT10=
EXTT11=
EXTT12=
PLAYORDER=
